<?xml version="1.0" encoding="UTF-8"?> <svg xmlns="http://www.w3.org/2000/svg" xmlns:xlink="http://www.w3.org/1999/xlink" width="482" height="224" viewBox="0 0 482 224"><defs><ellipse id="b" cx="64.84" cy="141.46" rx="10.6" ry="10.59"></ellipse><filter x="-25.9%" y="-16.5%" width="151.9%" height="151.9%" filterUnits="objectBoundingBox" id="a"><feOffset dy="2" in="SourceAlpha" result="shadowOffsetOuter1"></feOffset><feGaussianBlur stdDeviation="1.5" in="shadowOffsetOuter1" result="shadowBlurOuter1"></feGaussianBlur><feColorMatrix values="0 0 0 0 0.587322891 0 0 0 0 0.61073339 0 0 0 0 0.6730268 0 0 0 0.289526879 0" in="shadowBlurOuter1"></feColorMatrix></filter></defs><g fill="none" fill-rule="evenodd"><rect fill="#FFF" width="482" height="221" rx="24"></rect><g transform="translate(422 13)"><circle fill="#EEE" cx="14.5" cy="14.5" r="14.5"></circle><path fill="#6754E9" d="M12.4 20.2h4.4v-5.5h4.4L14.6 7 8 14.7h4.4z"></path></g><g fill="#000" fill-rule="nonzero"><path d="M31.26 32v-7.73h3.55c.86 0 1.5.22 1.89.67.4.44.6 1.04.6 1.8 0 .55-.14 1.01-.42 1.4-.27.38-.66.65-1.17.8.14.1.25.22.33.34.08.12.16.28.24.48l.98 2.24H35.9l-.95-2.16c-.08-.2-.19-.36-.31-.44-.13-.1-.34-.14-.63-.14h-1.46V32h-1.3Zm1.3-3.8h1.9c.47 0 .84-.1 1.12-.34.27-.23.4-.6.4-1.12 0-.96-.46-1.45-1.4-1.45h-2.02v2.92ZM41.28 32.12c-1 0-1.76-.24-2.3-.73-.55-.49-.82-1.24-.82-2.25 0-.9.23-1.63.7-2.16.46-.52 1.16-.79 2.1-.79.87 0 1.52.23 1.95.68.44.45.66 1.03.66 1.75v1.05H39.4c.07.55.27.93.6 1.14.34.21.85.31 1.54.31a4.9 4.9 0 0 0 1.68-.3v.96c-.26.12-.55.2-.88.26-.33.05-.69.08-1.06.08Zm-1.88-3.3h3.02v-.4c0-.39-.11-.7-.33-.91-.21-.22-.58-.33-1.09-.33-.6 0-1.03.13-1.25.4-.23.26-.35.67-.35 1.24ZM46.62 32.12c-.36 0-.7-.06-1-.2-.31-.12-.56-.31-.74-.57a1.63 1.63 0 0 1-.28-.97c0-.54.19-.98.56-1.31.37-.34.94-.5 1.72-.5h1.82v-.25c0-.28-.04-.5-.12-.65a.74.74 0 0 0-.46-.35 5.78 5.78 0 0 0-2.85.2v-.98a6.94 6.94 0 0 1 2.12-.35c.84 0 1.47.17 1.9.5.44.34.66.89.66 1.65V32h-1.11l-.09-.58c-.23.23-.52.4-.86.52-.34.12-.76.18-1.27.18Zm.34-.94c.4 0 .74-.06 1.03-.2.3-.13.53-.3.71-.53v-1h-1.8c-.38 0-.66.08-.83.23-.17.15-.26.37-.26.68 0 .3.1.5.3.63.2.13.49.2.85.2ZM52.82 32.12c-.46 0-.82-.11-1.06-.34-.24-.23-.36-.6-.36-1.14v-6.73h1.31v6.61c0 .23.04.38.12.46.08.08.2.12.36.12.2 0 .38-.02.55-.07v.95c-.15.05-.3.09-.43.11-.14.02-.3.03-.49.03ZM54.53 29.27v-1.02h4.58v1.02zM62.39 32v-6.7h-2.47v-1.03h6.24v1.02H63.7V32zM67.08 25.12v-1.08h1.42v1.08h-1.42Zm.1 6.88v-4.7h-.86l.12-.99h2.05V32h-1.3ZM70.02 32v-5.69h1.2l.06.6a3 3 0 0 1 2-.72c.4 0 .73.07.95.2.23.13.4.31.53.55.26-.22.56-.4.9-.54.35-.14.76-.2 1.24-.2.66 0 1.14.16 1.46.5.3.33.46.85.46 1.54V32h-1.28v-3.62c0-.44-.1-.75-.28-.93-.18-.17-.48-.26-.9-.26-.27 0-.53.05-.77.14-.24.1-.45.24-.63.43l.05.28.01.31V32h-1.21v-3.61c0-.42-.07-.72-.22-.91-.14-.2-.41-.3-.81-.3-.28 0-.55.07-.8.2-.25.14-.48.3-.68.48V32h-1.28ZM83.05 32.12c-1 0-1.76-.24-2.3-.73-.55-.49-.82-1.24-.82-2.25 0-.9.23-1.63.7-2.16.46-.52 1.16-.79 2.1-.79.87 0 1.52.23 1.96.68.43.45.65 1.03.65 1.75v1.05h-4.16c.06.55.26.93.6 1.14.33.21.84.31 1.53.31a4.9 4.9 0 0 0 1.68-.3v.96c-.25.12-.55.2-.88.26-.33.05-.69.08-1.06.08Zm-1.87-3.3h3v-.4c0-.39-.1-.7-.32-.91-.21-.22-.58-.33-1.09-.33-.6 0-1.02.13-1.25.4-.23.26-.34.67-.34 1.24ZM89.37 32v-7.73h3.55c.87 0 1.5.22 1.9.67.39.44.59 1.04.59 1.8 0 .55-.14 1.01-.41 1.4-.27.38-.66.65-1.18.8.15.1.26.22.34.34.08.12.16.28.24.48l.97 2.24h-1.34l-.95-2.16c-.09-.2-.2-.36-.32-.44-.12-.1-.33-.14-.63-.14h-1.45V32h-1.3Zm1.31-3.8h1.9c.47 0 .84-.1 1.11-.34.27-.23.41-.6.41-1.12 0-.96-.47-1.45-1.4-1.45h-2.02v2.92ZM99.4 32.12c-1 0-1.77-.24-2.31-.73-.55-.49-.82-1.24-.82-2.25 0-.9.23-1.63.7-2.16.46-.52 1.17-.79 2.11-.79.86 0 1.51.23 1.95.68.44.45.65 1.03.65 1.75v1.05h-4.16c.06.55.26.93.6 1.14.34.21.85.31 1.54.31a4.9 4.9 0 0 0 1.68-.3v.96c-.26.12-.55.2-.89.26-.33.05-.68.08-1.06.08Zm-1.88-3.3h3.01v-.4c0-.39-.1-.7-.32-.91-.22-.22-.58-.33-1.1-.33-.6 0-1.02.13-1.25.4-.23.26-.34.67-.34 1.24ZM102.96 34.6V26.3h1.12l.08.57a2.57 2.57 0 0 1 1.92-.69c.81 0 1.45.22 1.9.67.46.44.69 1.18.69 2.2 0 1.02-.24 1.79-.71 2.3a2.5 2.5 0 0 1-1.93.76c-.69 0-1.28-.16-1.77-.48v2.95h-1.3Zm2.73-3.46c1.1 0 1.66-.7 1.66-2.1 0-.66-.13-1.14-.37-1.43-.25-.28-.67-.42-1.25-.42-.59 0-1.07.2-1.47.6v2.84a2.16 2.16 0 0 0 1.43.5ZM112.66 32.12c-1.02 0-1.77-.26-2.25-.77-.47-.51-.71-1.24-.71-2.2 0-.95.24-1.68.72-2.19s1.23-.77 2.24-.77c1.03 0 1.78.26 2.26.77.48.51.72 1.24.72 2.2 0 .95-.24 1.68-.71 2.2-.48.5-1.23.76-2.27.76Zm0-1.1c.6 0 1.03-.15 1.28-.44.25-.3.38-.77.38-1.42 0-.66-.13-1.13-.38-1.42-.25-.29-.68-.43-1.28-.43-.59 0-1.01.14-1.26.43s-.38.76-.38 1.42c0 .65.13 1.13.38 1.42.25.29.67.44 1.26.44ZM116.91 32v-5.69h1.2l.07.66a5.24 5.24 0 0 1 2.1-.78v1a6.97 6.97 0 0 0-2.06.7V32h-1.3ZM123.4 32.12c-.62 0-1.07-.16-1.37-.49-.3-.32-.45-.76-.45-1.32v-2.98h-.84v-1.02h.84v-1.3l1.3-.4v1.7h1.5l-.08 1.02h-1.42v2.9c0 .33.07.56.22.7.16.13.4.2.75.2.21 0 .44-.05.68-.13v.93a3 3 0 0 1-1.14.19ZM126 25.12v-1.08h1.44v1.08H126Zm.12 6.88v-4.7h-.87l.12-.99h2.05V32h-1.3ZM128.95 32v-5.69h1.2l.06.6c.25-.2.56-.37.92-.5a3.2 3.2 0 0 1 1.18-.22c.73 0 1.27.17 1.6.52.34.34.51.88.51 1.6V32h-1.3v-3.62c0-.44-.09-.75-.27-.93-.18-.17-.51-.26-1.01-.26-.3 0-.59.06-.87.18s-.52.27-.71.47V32h-1.31ZM138.19 34.11c-.43 0-.85-.02-1.27-.08a5.2 5.2 0 0 1-1.08-.23v-1a8.92 8.92 0 0 0 3.55.23c.26-.07.4-.22.4-.44 0-.17-.07-.29-.2-.36-.13-.06-.37-.1-.73-.1h-1.54c-1.03 0-1.54-.36-1.54-1.09 0-.23.06-.45.2-.65s.35-.35.65-.45a1.6 1.6 0 0 1-.73-.66 2.04 2.04 0 0 1-.23-1.01c0-.73.22-1.26.65-1.59.44-.32 1.1-.49 1.96-.49a4.16 4.16 0 0 1 1.05.12h2.09l-.04.85h-.96c.15.13.26.3.34.48.07.2.1.4.1.63 0 .6-.18 1.08-.55 1.43-.37.35-.92.52-1.67.52a3.22 3.22 0 0 1-.7-.06 1.7 1.7 0 0 0-.65.2c-.2.1-.29.24-.29.42 0 .12.05.2.14.25.1.06.26.08.48.08h1.6c.57 0 1 .12 1.31.37.31.24.47.6.47 1.06 0 .56-.25.96-.73 1.2-.48.25-1.18.37-2.08.37Zm.1-4.71c.51 0 .88-.1 1.08-.27.2-.17.3-.47.3-.9 0-.42-.1-.73-.3-.92-.2-.2-.57-.29-1.09-.29-.48 0-.84.1-1.06.28-.23.18-.34.5-.34.93 0 .41.1.7.32.89.21.18.57.28 1.08.28ZM147.81 32.12c-.83 0-1.5-.18-2-.55-.5-.36-.76-.85-.76-1.45 0-.55.16-1 .49-1.38.32-.38.76-.72 1.32-1.02a4.8 4.8 0 0 1-.75-.83c-.18-.27-.28-.6-.28-.96 0-.5.18-.93.54-1.27.36-.34.86-.5 1.49-.5.62 0 1.11.15 1.47.48.36.32.53.75.53 1.29 0 .41-.1.77-.3 1.07-.2.3-.52.58-.96.87l1.78 1.81c.13-.27.2-.59.2-.96v-.2h.99v.23a3.37 3.37 0 0 1-.45 1.65l.98.99-.8.72-.86-.87c-.3.3-.67.53-1.12.67-.44.14-.95.21-1.5.21Zm-.02-4.81c.34-.23.6-.43.77-.6a1 1 0 0 0 .25-.72c0-.28-.08-.5-.22-.67-.15-.16-.4-.24-.73-.24-.34 0-.6.08-.74.26a.96.96 0 0 0-.23.65c0 .25.07.47.22.66.15.2.37.42.68.66Zm.02 3.9c.8 0 1.41-.23 1.84-.69l-2-2.02c-.45.18-.79.4-1 .65-.23.25-.34.57-.34.94s.14.65.42.84c.28.18.64.28 1.08.28ZM155.84 32l2.95-7.73h1.47l2.92 7.73h-1.34l-.77-2h-3.1l-.77 2h-1.36Zm2.33-3h2.69l-1.35-3.54-1.34 3.54ZM164.47 32v-5.69h1.2l.06.6c.25-.2.56-.37.92-.5a3.2 3.2 0 0 1 1.18-.22c.73 0 1.27.17 1.6.52.34.34.51.88.51 1.6V32h-1.3v-3.62c0-.44-.09-.75-.27-.93-.18-.17-.51-.26-1.01-.26-.3 0-.59.06-.87.18s-.52.27-.71.47V32h-1.31ZM173 32.12c-.36 0-.7-.06-1-.2-.31-.12-.56-.31-.74-.57a1.63 1.63 0 0 1-.28-.97c0-.54.19-.98.56-1.31.37-.34.95-.5 1.72-.5h1.83v-.25c0-.28-.04-.5-.13-.65a.74.74 0 0 0-.45-.35 5.78 5.78 0 0 0-2.85.2v-.98c.25-.1.56-.19.93-.25.37-.07.77-.1 1.19-.1.83 0 1.47.17 1.9.5.44.34.66.89.66 1.65V32h-1.12l-.08-.58c-.24.23-.52.4-.86.52-.34.12-.77.18-1.28.18Zm.35-.94c.39 0 .73-.06 1.02-.2.3-.13.53-.3.72-.53v-1h-1.8c-.39 0-.66.08-.84.23-.17.15-.25.37-.25.68 0 .3.1.5.3.63.2.13.48.2.85.2ZM179.2 32.12c-.46 0-.81-.11-1.05-.34-.24-.23-.36-.6-.36-1.14v-6.73h1.3v6.61c0 .23.05.38.13.46.08.08.2.12.36.12.19 0 .37-.02.55-.07v.95c-.15.05-.3.09-.44.11-.14.02-.3.03-.49.03ZM181.65 34.11c-.43 0-.8-.05-1.1-.17v-.97a1.94 1.94 0 0 0 .73.12c.25 0 .45-.04.6-.12.15-.08.29-.2.4-.38.12-.17.24-.39.38-.66l-2.53-5.62h1.35l1.83 4.23 1.85-4.23h1.34l-2.32 5.37c-.2.48-.41.9-.64 1.26-.23.37-.49.65-.79.86-.3.2-.67.31-1.1.31ZM189.72 32.12c-.61 0-1.07-.16-1.37-.49-.3-.32-.45-.76-.45-1.32v-2.98h-.84v-1.02h.84v-1.3l1.3-.4v1.7h1.51l-.08 1.02h-1.43v2.9c0 .33.08.56.23.7.15.13.4.2.74.2.22 0 .45-.05.69-.13v.93a3 3 0 0 1-1.14.19ZM192.33 25.12v-1.08h1.43v1.08h-1.43Zm.11 6.88v-4.7h-.86l.12-.99h2.05V32h-1.31ZM198.07 32.12c-1 0-1.76-.25-2.27-.76s-.77-1.24-.77-2.2c0-1 .28-1.75.85-2.24a3.34 3.34 0 0 1 2.26-.73c.4 0 .72.03.99.09.27.05.53.14.77.26v.97c-.41-.2-.92-.31-1.5-.31-.66 0-1.17.15-1.52.44-.35.29-.53.8-.53 1.52 0 .68.16 1.17.47 1.49.31.32.83.47 1.55.47.57 0 1.08-.1 1.55-.32v1a4.61 4.61 0 0 1-1.85.32ZM202.86 32.12a7.22 7.22 0 0 1-2-.29v-1.1a5.57 5.57 0 0 0 1.84.32c.44 0 .76-.04.95-.12.19-.08.29-.23.29-.47 0-.16-.06-.3-.18-.4a1.7 1.7 0 0 0-.51-.26l-.87-.28a5.73 5.73 0 0 1-.88-.37c-.25-.13-.44-.3-.58-.51-.13-.2-.2-.48-.2-.82 0-.52.19-.92.56-1.2.38-.29.98-.43 1.82-.43a5.85 5.85 0 0 1 1.69.25v1.1a3.9 3.9 0 0 0-1.49-.28c-.42 0-.73.04-.94.1-.21.08-.32.22-.32.44s.11.38.33.47c.22.1.57.22 1.06.38.45.14.8.28 1.07.43.26.16.45.34.57.55.12.21.17.49.17.82 0 .56-.2.98-.6 1.26-.42.27-1 .41-1.78.41Z"></path></g><g fill-rule="nonzero"><g transform="translate(194.1 100.24)"><circle fill="#6754E9" cx="3.86" cy="3.95" r="3.86"></circle><g opacity=".9"><path d="M15.84 8.09V.36h3.02c1.12 0 1.94.3 2.46.91.52.61.78 1.61.78 3 0 1.32-.25 2.29-.76 2.9-.5.61-1.33.92-2.48.92h-3.02Zm.98-.77h1.86c.55 0 1-.08 1.36-.25.36-.16.63-.46.81-.9a5.2 5.2 0 0 0 .27-1.9c0-.81-.08-1.45-.25-1.9a1.62 1.62 0 0 0-.78-.96 3.14 3.14 0 0 0-1.4-.27h-1.87v6.18ZM23.78 1.07v-.9h1.1v.9h-1.1Zm.1 7.02V3.18H23l.1-.78h1.76v5.69h-.98ZM28.34 8.2a7.34 7.34 0 0 1-1.88-.26v-.86a4.9 4.9 0 0 0 1.75.29c.5 0 .87-.06 1.08-.16.22-.11.33-.31.33-.61 0-.22-.06-.38-.18-.5-.11-.1-.29-.2-.53-.3l-.9-.3a8.69 8.69 0 0 1-.88-.35 1.49 1.49 0 0 1-.6-.49 1.4 1.4 0 0 1-.21-.82c0-.5.17-.89.52-1.16.36-.27.92-.4 1.7-.4a5.64 5.64 0 0 1 1.62.23v.86c-.5-.17-1-.25-1.46-.25-.5 0-.85.05-1.07.15-.22.1-.33.29-.33.56 0 .18.05.33.15.44.1.1.26.2.47.27l.82.28c.44.14.8.28 1.07.42.27.15.47.32.6.53.13.21.19.48.19.82 0 .56-.2.97-.59 1.23a3 3 0 0 1-1.67.39ZM32.04 10.68V2.4h.84l.07.6c.27-.25.56-.43.87-.55.32-.11.69-.17 1.11-.17.8 0 1.43.22 1.89.67.45.44.68 1.18.68 2.21 0 1.02-.23 1.79-.68 2.3-.46.5-1.1.75-1.9.75-.74 0-1.38-.18-1.9-.54v3.01h-.98Zm2.62-3.26c.64 0 1.1-.19 1.4-.55.3-.36.46-.93.46-1.71 0-.74-.14-1.28-.42-1.6-.28-.33-.76-.49-1.42-.49-.33 0-.63.06-.91.17-.28.11-.53.28-.75.52v3.1c.2.17.44.3.71.4.27.1.58.16.93.16ZM40.18 8.2c-.39 0-.69-.1-.91-.3-.22-.2-.33-.55-.33-1.04V0h.98v6.76c0 .24.04.4.12.49.08.09.2.13.38.13s.36-.02.54-.07v.78c-.13.05-.26.08-.39.1a3.2 3.2 0 0 1-.4.02ZM43.86 8.2c-.36 0-.7-.06-1-.18a1.7 1.7 0 0 1-.73-.57 1.58 1.58 0 0 1-.27-.96c0-.52.17-.94.51-1.28.35-.33.9-.5 1.68-.5h1.98v-.34c0-.31-.04-.56-.12-.75a.76.76 0 0 0-.48-.4 3.3 3.3 0 0 0-1.02-.11 5.77 5.77 0 0 0-1.9.31V2.6a6.6 6.6 0 0 1 2.03-.32c.81 0 1.42.16 1.82.5.4.32.6.85.6 1.59v3.72h-.82l-.07-.65c-.25.26-.55.45-.9.58-.35.12-.79.19-1.31.19Zm.25-.8a2.42 2.42 0 0 0 1.92-.83v-1.1h-1.95c-.45 0-.77.09-.96.25-.2.17-.3.43-.3.77 0 .35.12.58.36.72.23.13.54.2.93.2ZM49.12 10.2c-.38 0-.7-.05-.99-.16v-.79a1.94 1.94 0 0 0 .73.12c.28 0 .49-.05.65-.14.15-.1.29-.24.41-.44s.25-.45.4-.76L47.8 2.4h1.02l1.98 4.58 2.04-4.58h1l-2.38 5.44c-.2.45-.4.86-.61 1.21-.21.36-.45.64-.72.84-.28.2-.62.31-1.02.31ZM54.82 4.14v-.83h.87v.83h-.87Zm0 3.61v-.83h.87v.83h-.87Z" fill="#8E8E8E"></path><path d="M62.47 8.2c-.92 0-1.62-.23-2.1-.7-.48-.46-.72-1.2-.72-2.23V3.44c0-.64.13-1.2.38-1.68s.61-.85 1.08-1.12c.47-.27 1.02-.4 1.66-.4.38 0 .71.02 1 .07.29.04.55.1.78.18v.85a3.84 3.84 0 0 0-.78-.2c-.28-.04-.6-.06-.95-.06-.78 0-1.34.2-1.7.6-.35.39-.53.92-.53 1.58v.6c.31-.24.66-.41 1.04-.52.38-.1.72-.16 1.03-.16.88 0 1.54.21 1.97.64.43.43.65 1.05.65 1.86a2.5 2.5 0 0 1-.69 1.83c-.46.46-1.17.7-2.12.7Zm0-.77c.64 0 1.12-.16 1.44-.46.32-.31.48-.73.48-1.27 0-.37-.05-.68-.15-.94-.1-.26-.3-.46-.56-.6a2.39 2.39 0 0 0-1.1-.21c-.4 0-.76.06-1.1.18a3.7 3.7 0 0 0-.9.48v.93c0 1.26.64 1.89 1.9 1.89ZM69.24 8.09v-.53c.2-.5.5-.96.89-1.38.38-.42.8-.8 1.23-1.18.44-.36.79-.67 1.03-.93.24-.25.41-.5.51-.73.1-.23.14-.51.14-.83 0-.47-.12-.82-.36-1.06-.24-.25-.68-.37-1.34-.37a4.82 4.82 0 0 0-1.8.35V.55A5.82 5.82 0 0 1 71.5.24c.83 0 1.46.2 1.89.6.42.41.64.96.64 1.67 0 .38-.07.72-.2 1.01-.14.3-.33.57-.57.83-.24.26-.52.53-.84.82-.4.35-.77.68-1.12 1.02-.36.33-.64.7-.85 1.13h3.66v.77h-4.87ZM78.22 8.2c-.95 0-1.67-.17-2.16-.54-.5-.36-.75-.9-.75-1.61 0-.47.13-.87.38-1.23.25-.35.62-.6 1.11-.73a1.74 1.74 0 0 1-.97-.68c-.2-.3-.3-.64-.3-1.01 0-.66.22-1.18.67-1.57.45-.4 1.12-.59 2.02-.59.92 0 1.6.2 2.04.59.43.39.64.91.64 1.57 0 .38-.1.74-.29 1.07-.2.33-.54.57-1.04.74.55.14.94.36 1.18.66.25.3.37.7.37 1.18 0 .71-.25 1.25-.74 1.61-.49.37-1.21.55-2.16.55Zm.33-4.3c.5-.12.87-.29 1.1-.51.25-.22.37-.55.37-.98 0-.45-.16-.8-.47-1.04-.3-.23-.75-.35-1.33-.35-.58 0-1.02.11-1.34.34-.3.23-.46.58-.46 1.04 0 .34.1.63.32.86.22.23.52.38.9.46l.91.18Zm-.33 3.53c1.34 0 2.01-.47 2.01-1.4 0-.42-.12-.73-.38-.92-.25-.2-.61-.35-1.08-.44l-1.05-.22c-.46.1-.83.26-1.1.5-.28.24-.42.6-.42 1.07 0 .48.17.84.52 1.07.34.22.84.34 1.5.34ZM85.6 8.2c-.77 0-1.4-.15-1.88-.46a2.7 2.7 0 0 1-1.06-1.34 5.8 5.8 0 0 1-.34-2.08c0-.86.1-1.6.31-2.2.21-.62.55-1.08 1.03-1.4a3.46 3.46 0 0 1 1.95-.48c.8 0 1.45.16 1.93.48.48.32.82.78 1.03 1.4.21.6.31 1.34.31 2.2 0 .8-.1 1.5-.33 2.08a2.67 2.67 0 0 1-1.05 1.34c-.48.31-1.1.47-1.9.47Zm0-.83c.58 0 1.03-.13 1.36-.38.33-.25.57-.6.72-1.07.15-.46.22-1 .22-1.6 0-1.05-.17-1.85-.5-2.4-.33-.56-.93-.84-1.8-.84-.57 0-1.02.12-1.36.37-.34.25-.58.62-.72 1.1a6.28 6.28 0 0 0-.22 1.77c0 .6.08 1.14.23 1.6.14.46.39.82.73 1.07.34.25.79.38 1.35.38Z" fill="#000"></path></g><circle fill="#C1C1DC" cx="3.86" cy="51.95" r="3.86"></circle><circle fill="#E2E2E2" cx="136.86" cy="3.95" r="3.86"></circle><circle fill="#E1E1E8" cx="136.86" cy="51.95" r="3.86"></circle><g opacity=".9"><path d="M15.84 56.09v-7.73h3.58c.76 0 1.31.18 1.67.53.36.36.53.86.53 1.51 0 .42-.08.78-.25 1.06-.18.29-.41.5-.72.64.4.1.7.29.93.56.23.28.34.68.34 1.22 0 .75-.2 1.3-.58 1.67-.4.36-.97.54-1.73.54h-3.77Zm.98-4.35h2.54c.48 0 .83-.11 1.03-.35.2-.24.31-.54.31-.92 0-.45-.1-.78-.31-1.01-.21-.23-.61-.34-1.21-.34h-2.36v2.62Zm0 3.6h2.62c.52 0 .9-.11 1.14-.34.24-.23.36-.61.36-1.16 0-.44-.12-.78-.35-1.01-.24-.23-.67-.34-1.3-.34h-2.47v2.85ZM23.72 49.07v-.9h1.1v.9h-1.1Zm.1 7.02v-4.91h-.88l.1-.78h1.76v5.69h-.98ZM26.5 56.09V50.4h.88l.06.65a3.39 3.39 0 0 1 2.2-.77c.73 0 1.26.17 1.58.5.33.34.5.87.5 1.59v3.72h-.99V52.4c0-.5-.1-.84-.3-1.03-.2-.2-.58-.3-1.15-.3a2.6 2.6 0 0 0-1.8.72v4.3h-.98ZM35.54 58.2c-.42 0-.83-.02-1.24-.07-.4-.05-.75-.13-1.04-.23v-.82a8.31 8.31 0 0 0 3.55.22c.29-.07.43-.26.43-.55 0-.21-.08-.36-.23-.45a1.66 1.66 0 0 0-.78-.13h-1.51c-1.05 0-1.58-.35-1.58-1.05a1.2 1.2 0 0 1 .89-1.12 1.57 1.57 0 0 1-.7-.67 2.12 2.12 0 0 1-.23-1.01c0-.71.2-1.23.61-1.55.42-.33 1.05-.49 1.9-.49a3.7 3.7 0 0 1 .98.12h2.05l-.04.67h-1.03c.19.15.32.34.4.55.08.21.12.44.12.7 0 .63-.19 1.12-.55 1.47-.37.35-.94.52-1.7.52-.12 0-.24 0-.34-.02-.1 0-.22-.02-.35-.04-.25.01-.48.08-.7.21-.21.13-.32.3-.32.51 0 .14.05.24.16.3.1.07.3.1.6.1h1.57c.56 0 1 .11 1.3.34.3.23.46.56.46 1 0 .56-.23.95-.7 1.17-.46.21-1.12.32-1.98.32Zm.06-4.63c.57 0 .96-.1 1.18-.28.22-.18.32-.5.32-.97 0-.46-.11-.8-.34-1-.23-.22-.61-.32-1.16-.32-.53 0-.92.1-1.16.3-.24.2-.36.54-.36 1.02 0 .44.11.76.34.95.23.2.62.3 1.18.3ZM39.66 52.14v-.83h.88v.83h-.88Zm0 3.61v-.83h.88v.83h-.88Z" fill="#8E8E8E"></path><path d="M44.5 56.09v-.53c.2-.5.5-.96.88-1.38.39-.42.8-.8 1.24-1.18.44-.36.78-.67 1.03-.93.24-.25.41-.5.5-.73.1-.23.15-.51.15-.83 0-.47-.12-.82-.36-1.06-.24-.25-.69-.37-1.34-.37a4.82 4.82 0 0 0-1.8.35v-.88a5.82 5.82 0 0 1 1.95-.31c.83 0 1.46.2 1.9.6.42.41.63.96.63 1.67 0 .38-.06.72-.2 1.01-.14.3-.32.57-.56.83-.24.26-.52.53-.84.82-.4.35-.77.68-1.13 1.02-.35.33-.63.7-.84 1.13h3.66v.77H44.5ZM56.15 56.2c-.92 0-1.62-.23-2.1-.7-.48-.46-.72-1.2-.72-2.23v-1.83c0-.64.12-1.2.38-1.68.25-.48.6-.85 1.08-1.12.46-.27 1.02-.4 1.66-.4.37 0 .7.02 1 .07.28.04.54.1.77.18v.85a3.84 3.84 0 0 0-.77-.2c-.28-.04-.6-.06-.95-.06-.78 0-1.35.2-1.7.6-.36.39-.54.92-.54 1.58v.6c.32-.24.66-.41 1.04-.52.38-.1.73-.16 1.04-.16.88 0 1.54.21 1.97.64.43.43.65 1.05.65 1.86a2.5 2.5 0 0 1-.7 1.83c-.45.46-1.16.7-2.11.7Zm0-.77c.64 0 1.12-.16 1.44-.46.32-.31.48-.73.48-1.27 0-.37-.05-.68-.16-.94-.1-.26-.29-.46-.55-.6a2.39 2.39 0 0 0-1.1-.21c-.4 0-.76.06-1.1.18a3.7 3.7 0 0 0-.9.48v.93c0 1.26.63 1.89 1.89 1.89ZM62.66 56.2c-.36 0-.7-.01-.99-.06-.29-.04-.55-.1-.78-.18v-.86a4.86 4.86 0 0 0 1.73.27c.78 0 1.35-.2 1.7-.6.35-.4.53-.93.53-1.59v-.58a3.7 3.7 0 0 1-2.08.67c-.88 0-1.53-.22-1.97-.65-.43-.43-.64-1.05-.64-1.85 0-.76.23-1.37.7-1.83.46-.47 1.16-.7 2.1-.7.93 0 1.63.23 2.11.7s.71 1.22.71 2.24V53c0 .64-.12 1.2-.37 1.68-.26.48-.62.86-1.08 1.13-.47.26-1.03.4-1.67.4Zm.2-3.7c.39 0 .75-.06 1.09-.19.33-.12.63-.28.9-.47v-.94c0-1.25-.63-1.88-1.89-1.88-.64 0-1.12.15-1.44.46-.32.31-.48.73-.48 1.27 0 .36.06.67.16.93.1.27.29.47.55.61.27.14.63.21 1.1.21ZM70.27 56.2c-.77 0-1.4-.15-1.89-.46a2.7 2.7 0 0 1-1.06-1.34 5.8 5.8 0 0 1-.34-2.08c0-.86.1-1.6.32-2.2.2-.62.55-1.08 1.03-1.4a3.46 3.46 0 0 1 1.94-.48c.81 0 1.45.16 1.93.48.48.32.83.78 1.04 1.4.2.6.3 1.34.3 2.2 0 .8-.1 1.5-.32 2.08a2.67 2.67 0 0 1-1.05 1.34c-.48.31-1.11.47-1.9.47Zm0-.83c.57 0 1.02-.13 1.35-.38.33-.25.57-.6.72-1.07.15-.46.22-1 .22-1.6 0-1.05-.16-1.85-.5-2.4-.33-.56-.92-.84-1.79-.84-.57 0-1.03.12-1.37.37-.33.25-.57.62-.72 1.1a6.28 6.28 0 0 0-.21 1.77c0 .6.07 1.14.22 1.6.15.46.4.82.73 1.07.34.25.8.38 1.35.38Z" fill="#000"></path></g><g opacity=".9"><path d="m148.6 8.09 2.94-7.73h1.15l2.93 7.73h-1l-.82-2.13h-3.36l-.82 2.13h-1.02Zm2-2.9h3.02L152.1 1.2l-1.5 3.97ZM158.85 8.2c-.8 0-1.43-.21-1.89-.66-.45-.44-.68-1.18-.68-2.21s.24-1.79.71-2.3a2.5 2.5 0 0 1 1.92-.75c.71 0 1.33.18 1.85.54V0h.98v8.09h-.84l-.07-.6c-.27.25-.56.43-.87.54-.32.12-.69.18-1.11.18Zm.25-.78c.33 0 .63-.06.91-.17.28-.11.53-.29.75-.52v-3.1c-.2-.17-.44-.3-.71-.4-.27-.1-.58-.16-.93-.16-.63 0-1.1.18-1.4.55-.3.36-.46.93-.46 1.7 0 .75.14 1.29.42 1.61.28.32.76.49 1.42.49ZM163.42 8.09V.36h3.4c.83 0 1.43.22 1.81.65.38.43.57 1.01.57 1.75 0 .57-.13 1.04-.41 1.42-.28.37-.69.62-1.23.75.16.1.28.2.37.33.08.13.17.3.25.5l1.01 2.33h-1l-.99-2.25c-.1-.24-.23-.4-.38-.51-.15-.1-.4-.16-.78-.16h-1.64V8.1h-.98Zm.98-3.69h2.14c.52 0 .93-.13 1.23-.39.3-.26.45-.67.45-1.25 0-1.08-.52-1.62-1.55-1.62h-2.27V4.4ZM173.07 8.2c-1 0-1.72-.25-2.17-.75-.45-.51-.68-1.25-.68-2.2 0-.96.23-1.69.69-2.2.45-.51 1.17-.77 2.16-.77.98 0 1.7.26 2.16.77.45.51.68 1.24.68 2.2 0 .95-.22 1.69-.67 2.2-.45.5-1.17.76-2.17.76Zm0-.83c.68 0 1.16-.17 1.44-.51.28-.34.42-.88.42-1.62 0-.73-.14-1.27-.43-1.61-.28-.34-.76-.51-1.43-.51-.67 0-1.15.17-1.44.51-.28.34-.42.88-.42 1.61 0 .74.14 1.28.42 1.62.28.34.76.5 1.44.5ZM178.59 8.2c-.39 0-.69-.1-.9-.3-.23-.2-.34-.55-.34-1.04V0h.99v6.76c0 .24.04.4.12.49.08.09.2.13.37.13.18 0 .36-.02.54-.07v.78c-.13.05-.26.08-.39.1a3.2 3.2 0 0 1-.4.02ZM181.44 8.2c-.38 0-.68-.1-.9-.3-.22-.2-.33-.55-.33-1.04V0h.98v6.76c0 .24.04.4.12.49.08.09.2.13.37.13.19 0 .37-.02.54-.07v.78c-.12.05-.25.08-.38.1a3.2 3.2 0 0 1-.4.02ZM183.12 4.14v-.83h.88v.83h-.88Zm0 3.61v-.83h.88v.83h-.88Z" fill="#8E8E8E"></path><path d="M191.7 8.09V6.3h-3.98v-.74L191.8.36h.88v5.15h.81v.8h-.81V8.1h-.99Zm-3-2.56h3.12v-4l-3.12 4ZM197.21 8.09v-.53c.21-.5.5-.96.89-1.38.38-.42.8-.8 1.24-1.18.44-.36.78-.67 1.02-.93.25-.25.42-.5.51-.73.1-.23.15-.51.15-.83 0-.47-.12-.82-.36-1.06-.24-.25-.7-.37-1.35-.37a4.82 4.82 0 0 0-1.8.35V.55a5.82 5.82 0 0 1 1.96-.31c.83 0 1.46.2 1.89.6.43.41.64.96.64 1.67 0 .38-.07.72-.2 1.01-.14.3-.33.57-.57.83-.24.26-.52.53-.84.82l-1.12 1.02c-.36.33-.64.7-.85 1.13h3.66v.77h-4.87ZM203.28 8.09v-.53c.21-.5.5-.96.9-1.38.38-.42.79-.8 1.23-1.18.44-.36.78-.67 1.02-.93.25-.25.42-.5.51-.73.1-.23.15-.51.15-.83 0-.47-.12-.82-.36-1.06-.24-.25-.69-.37-1.35-.37a4.82 4.82 0 0 0-1.8.35V.55a5.82 5.82 0 0 1 1.96-.31c.83 0 1.46.2 1.89.6.43.41.64.96.64 1.67 0 .38-.07.72-.2 1.01-.14.3-.33.57-.57.83-.24.26-.52.53-.84.82l-1.12 1.02c-.35.33-.64.7-.84 1.13h3.66v.77h-4.88ZM212.64 8.2c-.77 0-1.4-.15-1.89-.46a2.7 2.7 0 0 1-1.06-1.34 5.8 5.8 0 0 1-.33-2.08c0-.86.1-1.6.3-2.2.22-.62.56-1.08 1.04-1.4a3.46 3.46 0 0 1 1.94-.48c.81 0 1.46.16 1.94.48.48.32.82.78 1.03 1.4.2.6.31 1.34.31 2.2 0 .8-.11 1.5-.33 2.08a2.67 2.67 0 0 1-1.05 1.34c-.48.31-1.11.47-1.9.47Zm0-.83c.57 0 1.02-.13 1.35-.38.34-.25.58-.6.72-1.07.15-.46.23-1 .23-1.6 0-1.05-.17-1.85-.5-2.4-.33-.56-.93-.84-1.8-.84-.57 0-1.03.12-1.36.37-.34.25-.58.62-.72 1.1a6.28 6.28 0 0 0-.22 1.77c0 .6.07 1.14.22 1.6.15.46.4.82.73 1.07.34.25.8.38 1.35.38Z" fill="#000"></path></g><g opacity=".9"><path d="M152.16 56.2c-1.2 0-2.1-.31-2.68-.95-.59-.63-.88-1.64-.88-3.03 0-1.38.3-2.39.88-3.03.58-.63 1.48-.95 2.68-.95 1.22 0 2.12.32 2.7.95.58.64.87 1.65.87 3.03 0 1.39-.3 2.4-.87 3.03-.58.64-1.48.96-2.7.96Zm0-.83c.59 0 1.07-.1 1.45-.3.38-.2.66-.53.85-1a5 5 0 0 0 .28-1.85 5 5 0 0 0-.28-1.85 1.86 1.86 0 0 0-.85-.99c-.38-.2-.86-.3-1.45-.3-.58 0-1.06.1-1.44.3-.38.2-.67.53-.85.99a5 5 0 0 0-.29 1.85 5 5 0 0 0 .29 1.86c.18.46.47.79.85.99.38.2.86.3 1.44.3ZM159.24 56.2c-.56 0-.98-.14-1.26-.44-.29-.3-.43-.72-.43-1.26v-3.32h-.86v-.78h.86V49l.99-.3v1.7h1.57l-.06.78h-1.51v3.28c0 .34.07.59.23.73.16.15.43.23.81.23.2 0 .44-.04.68-.12v.74c-.3.11-.63.17-1.02.17ZM161.4 56.09V48h.99v3.01a3.33 3.33 0 0 1 2.17-.73c.69 0 1.2.17 1.55.5.34.34.51.87.51 1.59v3.72h-.98V52.4c0-.5-.11-.84-.33-1.03-.22-.2-.58-.3-1.09-.3-.32 0-.65.07-.99.21-.34.14-.62.32-.84.55v4.26h-.99ZM170.85 56.2c-1.02 0-1.78-.24-2.28-.72-.5-.5-.76-1.24-.76-2.26 0-.91.22-1.63.66-2.15.43-.53 1.12-.79 2.07-.79.56 0 1.02.1 1.38.3.37.21.64.49.82.85.18.35.27.75.27 1.2v1.07h-4.21c.03.43.12.77.28 1.02.15.25.39.43.7.53.32.11.74.17 1.26.17.58 0 1.12-.1 1.6-.3v.76a5.4 5.4 0 0 1-1.8.32ZM168.8 53h3.33v-.48c0-.46-.12-.82-.36-1.07-.25-.25-.65-.38-1.21-.38-.68 0-1.14.16-1.4.48-.24.32-.36.8-.36 1.44ZM174.45 56.09V50.4h.89l.07.72a6.26 6.26 0 0 1 2.11-.84v.77a7.87 7.87 0 0 0-2.09.8v4.24h-.98ZM178.36 52.14v-.83h.88v.83h-.88Zm0 3.61v-.83h.88v.83h-.88Z" fill="#8E8E8E"></path><path fill="#000" d="M184.42 56.09V49.2l-1.22.22v-.83l2.2-.35v7.85zM192.42 56.2c-.92 0-1.62-.23-2.1-.7-.48-.46-.72-1.2-.72-2.23v-1.83c0-.64.13-1.2.38-1.68s.61-.85 1.08-1.12c.47-.27 1.02-.4 1.66-.4.38 0 .71.02 1 .07.29.04.55.1.78.18v.85a3.84 3.84 0 0 0-.77-.2c-.29-.04-.6-.06-.96-.06-.77 0-1.34.2-1.7.6-.35.39-.53.92-.53 1.58v.6c.31-.24.66-.41 1.04-.52.38-.1.72-.16 1.04-.16.88 0 1.53.21 1.96.64.44.43.65 1.05.65 1.86a2.5 2.5 0 0 1-.69 1.83c-.46.46-1.16.7-2.12.7Zm0-.77c.64 0 1.12-.16 1.44-.46.32-.31.48-.73.48-1.27 0-.37-.05-.68-.15-.94-.1-.26-.29-.46-.55-.6a2.39 2.39 0 0 0-1.1-.21c-.4 0-.76.06-1.1.18a3.7 3.7 0 0 0-.9.48v.93c0 1.26.63 1.89 1.88 1.89ZM200.16 56.09V54.3h-3.97v-.74l4.08-5.21h.88v5.15h.81v.8h-.81v1.78h-.99Zm-2.98-2.56h3.12v-4l-3.12 4ZM206.21 56.2c-.77 0-1.4-.15-1.89-.46a2.7 2.7 0 0 1-1.06-1.34 5.8 5.8 0 0 1-.34-2.08c0-.86.1-1.6.32-2.2.2-.62.55-1.08 1.03-1.4a3.46 3.46 0 0 1 1.94-.48c.81 0 1.45.16 1.93.48.48.32.83.78 1.04 1.4.2.6.3 1.34.3 2.2 0 .8-.1 1.5-.32 2.08a2.67 2.67 0 0 1-1.05 1.34c-.48.31-1.11.47-1.9.47Zm0-.83c.57 0 1.02-.13 1.35-.38.33-.25.57-.6.72-1.07.15-.46.22-1 .22-1.6 0-1.05-.16-1.85-.5-2.4-.33-.56-.92-.84-1.79-.84-.57 0-1.03.12-1.37.37-.33.25-.57.62-.72 1.1a6.28 6.28 0 0 0-.21 1.77c0 .6.07 1.14.22 1.6.15.46.4.82.73 1.07.34.25.8.38 1.35.38Z"></path></g><path fill-opacity=".15" fill="#000" d="M217.89 27.76v1h-218v-1z"></path></g><path d="M68.05 183.78c-30.45-19.76-39-60.58-19.12-91.17C68.8 62.03 109.6 53.23 140.05 73a5.98 5.98 0 0 1-6.52 10.04c-24.9-16.15-58.28-8.95-74.57 16.1-16.28 25.06-9.29 58.46 15.6 74.6 24.9 16.16 58.29 8.96 74.58-16.1a5.98 5.98 0 1 1 10.03 6.53c-19.88 30.58-60.67 39.38-91.12 19.62Z" fill-opacity=".6" fill="#E2E2E2"></path><path d="M125.56 65.94c34.33 11.82 52.51 49.36 40.64 83.84-11.88 34.48-49.33 52.87-83.66 41.05a5.98 5.98 0 0 1 3.9-11.32c28.06 9.66 58.71-5.38 68.44-33.63 9.73-28.24-5.15-58.96-33.22-68.63-28.07-9.66-58.72 5.4-68.45 33.64a5.98 5.98 0 0 1-11.31-3.9c11.88-34.48 49.33-52.87 83.66-41.05Z" fill-opacity=".6" fill="#B9B9D8"></path><path d="M97.15 62.7c36.11-3.8 68.46 22.54 72.27 58.8 3.8 36.28-22.37 68.77-58.47 72.57a5.98 5.98 0 0 1-1.26-11.9c29.53-3.11 50.94-29.7 47.82-59.41-3.12-29.71-29.59-51.26-59.1-48.16-29.53 3.1-50.95 29.7-47.83 59.41a5.98 5.98 0 0 1-11.9 1.25C34.88 98.99 61.04 66.5 97.15 62.7Z" fill-opacity=".25" fill="#B9B9D8"></path><path d="M171 131.8c-1.92 36.8-33.53 65.05-70.57 63.12a67.61 67.61 0 0 1-19.12-3.8 7.04 7.04 0 0 1 4.71-13.27 53.53 53.53 0 0 0 15.15 3c29.3 1.54 54.25-20.77 55.78-49.79 1.52-29.02-20.97-53.8-50.26-55.33a7.04 7.04 0 0 1 .74-14.06c37.03 1.93 65.51 33.32 63.58 70.13Z" fill="#FAFDFE"></path><path d="M169.95 131.74c-1.9 36.23-33 64.03-69.46 62.12a66.56 66.56 0 0 1-18.83-3.74 5.98 5.98 0 0 1 4-11.28 54.59 54.59 0 0 0 15.45 3.07c29.88 1.56 55.34-21.19 56.9-50.8 1.55-29.6-21.39-54.88-51.26-56.44a5.98 5.98 0 0 1 .62-11.95c36.46 1.9 64.49 32.8 62.58 69.02Z" fill="#6754E9"></path><g fill="#000"><path d="M80.46 122.92v-1.56h3.79v6.96h-1.82v-5.4zM90.88 122.36c.74 0 1.38.13 1.93.38s.98.6 1.28 1.07c.3.46.46 1 .45 1.62-.01.61-.19 1.15-.52 1.61-.34.46-.82.82-1.44 1.08-.63.26-1.38.39-2.26.39-.92 0-1.73-.12-2.41-.35a3.43 3.43 0 0 1-1.6-1.03c-.37-.46-.55-1-.54-1.63a2.9 2.9 0 0 1 .5-1.6 54.58 54.58 0 0 0 1.36-1.97 117.5 117.5 0 0 0 1.26-1.82l.43-.61.16-.23h2.3l-4.72 5.82-.55.48c.37-.5.71-.94 1.04-1.34.33-.4.66-.74.99-1.02a3.56 3.56 0 0 1 2.34-.85Zm-.66 4.66c.72 0 1.3-.14 1.76-.42.45-.28.68-.68.7-1.2 0-.53-.21-.93-.66-1.21a3.18 3.18 0 0 0-1.74-.43c-.8 0-1.44.16-1.92.48-.47.31-.72.7-.73 1.17 0 .52.23.92.72 1.2.5.27 1.12.41 1.87.41ZM102.78 123.68c-.84 0-1.55-.08-2.12-.22-.57-.15-1-.37-1.3-.69-.3-.31-.44-.72-.44-1.22 0-.48.14-.9.42-1.27.29-.37.72-.66 1.29-.87a6.18 6.18 0 0 1 2.15-.33c.88 0 1.6.11 2.17.33.57.21 1 .5 1.28.87.29.37.43.8.43 1.27 0 .5-.15.91-.44 1.22-.3.32-.73.54-1.31.69-.58.14-1.29.22-2.13.22Zm0-.66c.47 0 .85-.06 1.15-.16.3-.11.52-.26.66-.44a1 1 0 0 0 .22-.63.97.97 0 0 0-.22-.63 1.4 1.4 0 0 0-.66-.42c-.3-.1-.68-.14-1.15-.14-.46 0-.83.04-1.12.14-.29.1-.5.24-.64.42a.99.99 0 0 0-.21.63c0 .23.07.44.2.63.15.18.36.33.65.44.3.1.66.16 1.12.16Zm0 5.49a6.4 6.4 0 0 1-2.3-.36 3.03 3.03 0 0 1-1.37-.97 2.2 2.2 0 0 1-.46-1.35c0-.58.17-1.05.5-1.4.32-.36.79-.63 1.4-.79a8.78 8.78 0 0 1 2.23-.24c.88 0 1.63.08 2.24.24.62.16 1.09.43 1.42.78.32.36.49.83.49 1.41 0 .5-.16.95-.46 1.35-.3.4-.76.73-1.37.97-.61.24-1.38.36-2.32.36Zm.02-1.54c.52 0 .95-.06 1.28-.17.34-.11.59-.27.75-.47a1.11 1.11 0 0 0 0-1.4c-.16-.2-.41-.36-.75-.47a4.15 4.15 0 0 0-1.28-.17c-.54 0-.97.06-1.3.17-.33.11-.57.27-.73.48a1.16 1.16 0 0 0 0 1.39c.16.2.4.36.73.47.33.11.76.17 1.3.17ZM112.83 122.36c.73 0 1.38.13 1.93.38s.98.6 1.28 1.07c.3.46.45 1 .44 1.62 0 .61-.18 1.15-.52 1.61-.33.46-.81.82-1.44 1.08-.62.26-1.38.39-2.25.39-.93 0-1.73-.12-2.42-.35a3.43 3.43 0 0 1-1.59-1.03c-.37-.46-.55-1-.54-1.63a2.9 2.9 0 0 1 .49-1.6 54.58 54.58 0 0 0 1.36-1.97 117.5 117.5 0 0 0 1.26-1.82l.44-.61.16-.23h2.3l-4.73 5.82-.54.48c.36-.5.7-.94 1.03-1.34.33-.4.66-.74 1-1.02a3.56 3.56 0 0 1 2.34-.85Zm-.66 4.66c.72 0 1.3-.14 1.76-.42.45-.28.68-.68.69-1.2 0-.53-.2-.93-.65-1.21a3.18 3.18 0 0 0-1.75-.43c-.8 0-1.44.16-1.91.48-.48.31-.72.7-.73 1.17-.01.52.23.92.72 1.2.49.27 1.11.41 1.87.41ZM121.99 128.5c-.88 0-1.65-.15-2.32-.43a3.5 3.5 0 0 1-1.56-1.22 3.38 3.38 0 0 1-.56-1.98c0-.79.19-1.45.56-2 .38-.55.9-.96 1.56-1.24a5.95 5.95 0 0 1 2.32-.42c.88 0 1.64.14 2.3.42.66.28 1.18.7 1.55 1.24.37.55.56 1.21.56 2 0 .78-.19 1.44-.56 1.98a3.5 3.5 0 0 1-1.55 1.22c-.66.28-1.42.42-2.3.42Zm0-1.4c.48 0 .9-.1 1.3-.27.38-.17.69-.42.92-.75.23-.33.34-.74.34-1.21 0-.48-.11-.89-.34-1.23-.23-.34-.54-.6-.92-.78a3.06 3.06 0 0 0-1.3-.26c-.48 0-.91.09-1.3.26-.4.18-.7.44-.94.77a2.1 2.1 0 0 0-.35 1.24c0 .47.11.88.34 1.2.23.34.54.59.93.76.4.18.83.26 1.32.26Z"></path></g><g fill="#8E8E8E"><path d="M86.7 139.42c-.8 0-1.45-.1-1.94-.3v-.73a4.97 4.97 0 0 0 1.87.33c.57 0 1-.07 1.29-.23.29-.16.43-.44.43-.85a.96.96 0 0 0-.18-.6c-.11-.15-.3-.28-.57-.38a8.6 8.6 0 0 0-1.07-.32 3.3 3.3 0 0 1-1.5-.67 1.48 1.48 0 0 1-.42-1.12c0-.54.2-.97.59-1.3.4-.3 1-.47 1.8-.47a6.34 6.34 0 0 1 1.78.25v.72a4.45 4.45 0 0 0-1.65-.27c-.55 0-.97.08-1.26.24-.3.16-.44.44-.44.83 0 .22.05.4.15.54.1.14.28.25.53.35.25.1.59.2 1.03.3.53.13.94.28 1.23.46.3.18.5.38.62.62s.18.52.18.82c0 .57-.2 1-.62 1.32-.41.3-1.03.46-1.85.46ZM92.7 139.42c-.85 0-1.48-.2-1.9-.6-.42-.41-.63-1.04-.63-1.89 0-.76.18-1.35.54-1.8.37-.43.94-.65 1.73-.65.47 0 .85.09 1.15.26.3.17.53.4.68.7.15.3.23.63.23 1v.9h-3.51c.03.35.1.64.23.84.13.21.33.36.6.45.26.09.6.13 1.04.13.49 0 .93-.08 1.34-.25v.64a4.5 4.5 0 0 1-1.5.27Zm-1.71-2.68h2.78v-.39c0-.38-.1-.68-.3-.9-.21-.2-.54-.3-1.01-.3-.57 0-.95.13-1.16.4-.2.26-.31.66-.31 1.2ZM97.14 139.42a6.12 6.12 0 0 1-1.57-.22v-.72a4.08 4.08 0 0 0 1.46.24c.42 0 .72-.04.9-.13.18-.1.27-.26.27-.5 0-.19-.05-.32-.15-.42-.1-.09-.24-.17-.44-.25l-.75-.26c-.27-.09-.52-.19-.73-.29-.21-.1-.38-.23-.5-.4s-.18-.4-.18-.69c0-.42.15-.74.44-.96.3-.22.77-.34 1.42-.34a4.7 4.7 0 0 1 1.34.2v.71a3.82 3.82 0 0 0-1.21-.2c-.41 0-.71.04-.9.12-.18.08-.27.24-.27.46 0 .16.04.28.12.37.09.09.22.17.4.23l.68.23c.37.12.66.23.89.35.23.12.4.27.5.44.1.18.16.4.16.68 0 .47-.16.81-.5 1.03a2.5 2.5 0 0 1-1.38.32ZM101.46 139.42a6.12 6.12 0 0 1-1.57-.22v-.72a4.08 4.08 0 0 0 1.46.24c.42 0 .72-.04.9-.13.18-.1.27-.26.27-.5 0-.19-.05-.32-.15-.42-.1-.09-.24-.17-.44-.25l-.75-.26c-.27-.09-.52-.19-.73-.29-.21-.1-.38-.23-.5-.4s-.18-.4-.18-.69c0-.42.15-.74.44-.96.3-.22.77-.34 1.42-.34a4.7 4.7 0 0 1 1.34.2v.71a3.82 3.82 0 0 0-1.21-.2c-.41 0-.71.04-.9.12-.18.08-.27.24-.27.46 0 .16.04.28.12.37.09.09.22.17.4.23l.68.23c.37.12.66.23.89.35.23.12.4.27.5.44.1.18.16.4.16.68 0 .47-.16.81-.5 1.03a2.5 2.5 0 0 1-1.38.32ZM104.69 133.47v-.75h.9v.75h-.9Zm.08 5.85v-4.09h-.73l.08-.65h1.47v4.74h-.82ZM109.17 139.42c-.83 0-1.43-.2-1.8-.63-.38-.42-.57-1.04-.57-1.84 0-.79.19-1.4.57-1.83.38-.42.98-.64 1.8-.64.82 0 1.42.22 1.8.64.38.43.57 1.04.57 1.83 0 .8-.19 1.42-.56 1.84-.37.42-.98.63-1.81.63Zm0-.7c.57 0 .97-.14 1.2-.42.23-.28.35-.73.35-1.35 0-.61-.12-1.06-.36-1.34-.23-.28-.63-.43-1.2-.43-.55 0-.95.15-1.19.43-.23.28-.35.73-.35 1.34 0 .62.12 1.07.35 1.35.23.28.63.42 1.2.42ZM112.74 139.32v-4.74h.74l.05.54a2.83 2.83 0 0 1 1.84-.64c.6 0 1.04.14 1.3.42.28.28.42.72.42 1.32v3.1h-.82v-3.07c0-.41-.08-.7-.25-.86-.17-.16-.49-.25-.96-.25a2.17 2.17 0 0 0-1.5.6v3.58h-.82ZM119.93 139.42a6.12 6.12 0 0 1-1.57-.22v-.72a4.08 4.08 0 0 0 1.46.24c.42 0 .72-.04.9-.13.18-.1.27-.26.27-.5 0-.19-.05-.32-.15-.42-.1-.09-.24-.17-.44-.25l-.75-.26c-.27-.09-.52-.19-.73-.29-.21-.1-.38-.23-.5-.4s-.18-.4-.18-.69c0-.42.15-.74.44-.96.3-.22.77-.34 1.42-.34a4.7 4.7 0 0 1 1.34.2v.71a3.82 3.82 0 0 0-1.21-.2c-.41 0-.71.04-.9.12-.18.08-.27.24-.27.46 0 .16.04.28.12.37.09.09.22.17.4.23l.68.23c.37.12.66.23.89.35.23.12.4.27.5.44.1.18.16.4.16.68 0 .47-.16.81-.5 1.03a2.5 2.5 0 0 1-1.38.32Z"></path></g><g transform="translate(18.1 42.32)"><use fill="#000" filter="url(#a)" xlink:href="#b"></use><use fill="#FFBE11" xlink:href="#b"></use></g><path d="M82.95 173.19a10.6 10.6 0 1 1 0 21.2 10.6 10.6 0 0 1 0-21.2Zm0 1.76a8.84 8.84 0 1 0-.02 17.67 8.84 8.84 0 0 0 .02-17.67Z" fill="#FAFCFE"></path><path d="M81.37 187.31a.54.54 0 0 1-.37-.14l-2.1-2a.48.48 0 0 1 0-.7c.2-.2.53-.2.74 0l1.73 1.64 4.88-4.63c.2-.2.53-.2.74 0a.48.48 0 0 1 0 .7l-5.25 4.99c-.1.1-.23.14-.37.14Z" fill="#FAFCFE"></path></g></g></svg> 