<?xml version="1.0" encoding="UTF-8"?> <svg xmlns="http://www.w3.org/2000/svg" width="482" height="221" viewBox="0 0 482 221"><g fill="none" fill-rule="evenodd"><rect fill="#FFF" width="482" height="221" rx="24"></rect><g fill="#000" fill-rule="nonzero"><path d="M32.59 39.54c-1.87 0-3.29-.5-4.25-1.47-.97-.98-1.46-2.34-1.46-4.08 0-1.84.5-3.3 1.47-4.35.98-1.05 2.44-1.58 4.37-1.58.67 0 1.28.04 1.82.11.54.08 1.05.2 1.54.36v2c-.49-.17-1-.3-1.53-.37a11.9 11.9 0 0 0-1.65-.11c-1.33 0-2.27.32-2.82.98-.55.65-.83 1.63-.83 2.96 0 2.38 1.12 3.58 3.37 3.58a6.88 6.88 0 0 0 2.14-.35v-2.6h-2.59v-1.48h4.56v5.45c-.38.24-.9.46-1.59.65-.68.2-1.53.3-2.55.3ZM38.36 39.36v-8.19h2.16l.1.85A8.12 8.12 0 0 1 43.61 31v1.76a10.7 10.7 0 0 0-2.92.88v5.72h-2.33ZM48.55 39.54c-1.53 0-2.65-.38-3.37-1.12a4.37 4.37 0 0 1-1.07-3.15c0-1.36.36-2.41 1.08-3.16.72-.74 1.84-1.11 3.36-1.11 1.54 0 2.66.37 3.38 1.11.72.75 1.08 1.8 1.08 3.16s-.36 2.4-1.07 3.15c-.71.74-1.84 1.12-3.39 1.12Zm0-2c.75 0 1.29-.16 1.61-.5.32-.34.48-.93.48-1.77s-.16-1.43-.48-1.77c-.32-.34-.86-.51-1.6-.51-.74 0-1.27.17-1.6.5-.32.35-.48.94-.48 1.78 0 .84.16 1.43.48 1.77.33.34.86.5 1.6.5ZM55.67 39.37l-2.16-8.2h2.33l1.25 5.33 1.36-4.27v-1.05h1.78l1.56 5.32L63 31.18h2.31l-2.14 8.19h-2.14l-1.58-4.8-1.6 4.8zM69.84 39.54c-.94 0-1.64-.25-2.1-.75a2.87 2.87 0 0 1-.68-2.02v-3.8H65.9v-1.8h1.16v-1.76l2.33-.7v2.46h2.08l-.14 1.8h-1.94v3.65c0 .44.1.75.31.92.21.17.53.25.97.25.32 0 .66-.06 1-.17v1.6c-.25.1-.53.19-.83.24-.3.05-.63.08-1 .08ZM72.87 39.36V27.72h2.33v4.14A4.94 4.94 0 0 1 78 31c1.08 0 1.87.25 2.37.76.5.5.74 1.29.74 2.35v5.25h-2.33v-5.13c0-.55-.12-.94-.34-1.17-.23-.23-.64-.35-1.25-.35a2.97 2.97 0 0 0-1.99.85v5.8h-2.33Z"></path></g><path fill="#F3F3F3" fill-rule="nonzero" d="M461 58v.72H28V58zM461 174.14v.72H50v-.72z"></path><path d="M50 146.14v.72h11v-.72H50Zm18 0v.72h11v-.72H68Zm17 0v.72h11v-.72H85Zm17 0v.72h11v-.72h-11Zm18 0v.72h11v-.72h-11Zm18 0v.72h11v-.72h-11Zm18 0v.72h11v-.72h-11Zm18 0v.72h11v-.72h-11Zm18 0v.72h11v-.72h-11Zm18 0v.72h11v-.72h-11Zm17 0v.72h11v-.72h-11Zm18 0v.72h11v-.72h-11Zm17 0v.72h11v-.72h-11Zm18 0v.72h11v-.72h-11Zm18 0v.72h11v-.72h-11Zm18 0v.72h11v-.72h-11Zm18 0v.72h11v-.72h-11Zm17 0v.72h11v-.72h-11Zm18 0v.72h11v-.72h-11Zm18 0v.72h11v-.72h-11Zm18 0v.72h11v-.72h-11Zm17 0v.72h11v-.72h-11Zm18 0v.72h11v-.72h-11Zm19 0v.72h2v-.72h-2ZM50 116.14v.72h11v-.72H50Zm18 0v.72h11v-.72H68Zm17 0v.72h11v-.72H85Zm17 0v.72h11v-.72h-11Zm18 0v.72h11v-.72h-11Zm18 0v.72h11v-.72h-11Zm18 0v.72h11v-.72h-11Zm18 0v.72h11v-.72h-11Zm18 0v.72h11v-.72h-11Zm18 0v.72h11v-.72h-11Zm17 0v.72h11v-.72h-11Zm18 0v.72h11v-.72h-11Zm17 0v.72h11v-.72h-11Zm18 0v.72h11v-.72h-11Zm18 0v.72h11v-.72h-11Zm18 0v.72h11v-.72h-11Zm18 0v.72h11v-.72h-11Zm17 0v.72h11v-.72h-11Zm18 0v.72h11v-.72h-11Zm18 0v.72h11v-.72h-11Zm18 0v.72h11v-.72h-11Zm17 0v.72h11v-.72h-11Zm18 0v.72h11v-.72h-11Zm19 0v.72h2v-.72h-2ZM50 87.14v.72h11v-.72H50Zm18 0v.72h11v-.72H68Zm17 0v.72h11v-.72H85Zm17 0v.72h11v-.72h-11Zm18 0v.72h11v-.72h-11Zm18 0v.72h11v-.72h-11Zm18 0v.72h11v-.72h-11Zm18 0v.72h11v-.72h-11Zm18 0v.72h11v-.72h-11Zm18 0v.72h11v-.72h-11Zm17 0v.72h11v-.72h-11Zm18 0v.72h11v-.72h-11Zm17 0v.72h11v-.72h-11Zm18 0v.72h11v-.72h-11Zm18 0v.72h11v-.72h-11Zm18 0v.72h11v-.72h-11Zm18 0v.72h11v-.72h-11Zm17 0v.72h11v-.72h-11Zm18 0v.72h11v-.72h-11Zm18 0v.72h11v-.72h-11Zm18 0v.72h11v-.72h-11Zm17 0v.72h11v-.72h-11Zm18 0v.72h11v-.72h-11Zm19 0v.72h2v-.72h-2Z" fill="#DDD" fill-rule="nonzero"></path><path d="M33.88 175.31c-.68 0-1.24-.13-1.65-.4a2.28 2.28 0 0 1-.91-1.15c-.2-.5-.3-1.1-.3-1.8 0-.72.1-1.34.29-1.85.18-.51.48-.9.9-1.17.41-.27.97-.4 1.67-.4s1.26.13 1.67.4c.41.27.71.66.9 1.17.18.51.27 1.13.27 1.85 0 .7-.1 1.3-.28 1.8-.19.5-.49.89-.9 1.15-.42.27-.97.4-1.66.4Zm0-.94c.65 0 1.1-.21 1.35-.64.26-.42.38-1.01.38-1.77 0-.8-.12-1.41-.37-1.84-.25-.43-.7-.65-1.36-.65-.66 0-1.11.22-1.37.65a3.69 3.69 0 0 0-.37 1.84c0 .76.12 1.35.38 1.77.26.43.7.64 1.36.64Z" fill="#000" fill-rule="nonzero" opacity=".7"></path><g fill="#000" fill-rule="nonzero" opacity=".7"><path d="M50.93 190.3c-.56 0-1.03-.08-1.42-.23v-.93a3.04 3.04 0 0 0 1.22.23c.45 0 .77-.1.95-.28.17-.18.26-.48.26-.89v-4.5h1.1v4.68c0 .62-.17 1.1-.53 1.42-.35.33-.88.5-1.58.5ZM55.99 190.3c-.58 0-1.01-.16-1.32-.48-.3-.31-.46-.78-.46-1.39v-3.01h1.1v3.01c0 .36.09.62.26.79.18.17.45.25.8.25a1.83 1.83 0 0 0 1.35-.55v-3.5h1.09v4.78h-1l-.05-.5a2.78 2.78 0 0 1-1.77.6ZM61.28 190.3c-.4 0-.69-.1-.89-.29-.2-.2-.3-.5-.3-.95v-5.66h1.1v5.56c0 .19.03.31.1.38.06.07.17.1.3.1.16 0 .32-.02.46-.06v.8a1.8 1.8 0 0 1-.36.1l-.41.02Z"></path></g><g fill="#000" fill-rule="nonzero" opacity=".7"><path d="M147.41 190.3c-.55 0-1.02-.08-1.41-.23v-.93a3.04 3.04 0 0 0 1.22.23c.45 0 .76-.1.94-.28.18-.18.27-.48.27-.89v-4.5h1.1v4.68c0 .62-.18 1.1-.53 1.42-.35.33-.88.5-1.59.5ZM152.47 190.3c-.57 0-1-.16-1.31-.48-.31-.31-.46-.78-.46-1.39v-3.01h1.1v3.01c0 .36.08.62.26.79.17.17.44.25.8.25a1.83 1.83 0 0 0 1.35-.55v-3.5h1.08v4.78h-1l-.04-.5a2.78 2.78 0 0 1-1.77.6ZM156.57 190.2v-4.78h1.01l.05.5c.22-.16.47-.3.77-.43.3-.11.63-.17 1-.17.61 0 1.06.14 1.35.43.28.3.42.74.42 1.35v3.1h-1.09v-3.05c0-.37-.07-.63-.23-.77-.15-.15-.43-.22-.85-.22-.25 0-.49.05-.73.15-.24.1-.44.23-.6.39v3.5h-1.1Z"></path></g><g fill="#000" fill-rule="nonzero" opacity=".7"><path d="m245 190.2 2.48-6.5h1.23l2.46 6.5h-1.13l-.65-1.68h-2.6l-.65 1.68H245Zm1.96-2.52h2.25l-1.13-2.98-1.12 2.98ZM253.62 190.3c-.57 0-1.01-.16-1.32-.48-.3-.31-.46-.78-.46-1.39v-3.01h1.1v3.01c0 .36.09.62.27.79.17.17.44.25.8.25a1.83 1.83 0 0 0 1.34-.55v-3.5h1.1v4.78h-1l-.06-.5a2.78 2.78 0 0 1-1.77.6ZM259.66 191.97c-.36 0-.72-.02-1.07-.06-.36-.05-.66-.11-.9-.2v-.85a7.5 7.5 0 0 0 2.98.2c.22-.06.33-.18.33-.37 0-.14-.06-.24-.16-.3-.11-.05-.32-.08-.62-.08h-1.29c-.87 0-1.3-.3-1.3-.92 0-.2.06-.38.17-.54.12-.17.3-.3.55-.39a1.35 1.35 0 0 1-.61-.55c-.13-.24-.2-.52-.2-.85 0-.6.18-1.05.55-1.33.37-.27.91-.41 1.65-.41a3.5 3.5 0 0 1 .87.1h1.76l-.03.71h-.8c.12.11.21.25.27.4.06.17.1.34.1.53 0 .51-.16.91-.47 1.2-.3.3-.78.45-1.4.45a2.7 2.7 0 0 1-.6-.06c-.2.03-.38.08-.54.17-.16.08-.24.2-.24.35 0 .1.04.17.12.22a.9.9 0 0 0 .4.06h1.34c.48 0 .85.1 1.1.3.27.21.4.51.4.9 0 .47-.2.8-.61 1.01-.41.2-1 .31-1.75.31Zm.08-3.96c.43 0 .74-.07.9-.22.18-.15.27-.4.27-.76 0-.35-.09-.61-.26-.77-.17-.17-.48-.25-.91-.25-.41 0-.71.08-.9.24-.19.15-.28.41-.28.78 0 .34.09.6.26.75.18.15.49.23.92.23Z"></path></g><g fill="#000" fill-rule="nonzero" opacity=".7"><path d="M348.17 190.3a5.3 5.3 0 0 1-2.03-.32V189a6.18 6.18 0 0 0 1.93.36c.51 0 .9-.06 1.16-.18.26-.12.39-.36.39-.73 0-.22-.06-.4-.16-.53-.11-.14-.29-.25-.54-.35-.25-.1-.59-.2-1.02-.3a3.3 3.3 0 0 1-1.48-.7 1.55 1.55 0 0 1-.42-1.15c0-.57.2-1.02.62-1.34.42-.32 1.04-.49 1.87-.49a6.67 6.67 0 0 1 1.84.27v.96c-.5-.19-1.07-.29-1.69-.29-.48 0-.86.07-1.13.2-.27.12-.4.35-.4.69 0 .2.05.35.14.47.1.12.26.23.49.32.23.08.55.18.96.29.53.13.94.3 1.24.48.29.18.5.4.61.64.12.25.18.52.18.83a1.6 1.6 0 0 1-.64 1.35c-.42.33-1.06.49-1.92.49ZM354.22 190.3a2.8 2.8 0 0 1-1.94-.62c-.46-.4-.69-1.04-.69-1.88 0-.77.2-1.37.59-1.82.39-.44.98-.66 1.77-.66.73 0 1.27.19 1.64.57.37.38.55.87.55 1.46v.9h-3.5c.06.46.22.77.5.95.29.17.72.26 1.3.26a4.11 4.11 0 0 0 1.4-.25v.8c-.2.1-.45.17-.73.22-.28.04-.58.07-.9.07Zm-1.58-2.77h2.53v-.34c0-.33-.09-.58-.27-.77-.18-.18-.49-.27-.92-.27-.5 0-.86.1-1.05.33-.2.22-.29.57-.29 1.05ZM357.2 192.37v-6.95h.96l.06.47a2.16 2.16 0 0 1 1.61-.57c.69 0 1.22.18 1.6.56.39.37.58.99.58 1.85 0 .86-.2 1.5-.6 1.93-.4.42-.94.64-1.62.64-.58 0-1.07-.14-1.48-.4v2.47h-1.1Zm2.3-2.9c.93 0 1.4-.58 1.4-1.75 0-.57-.1-.97-.31-1.2-.21-.25-.56-.36-1.05-.36-.5 0-.9.16-1.23.5v2.39a1.81 1.81 0 0 0 1.2.42Z"></path></g><g fill="#000" fill-rule="nonzero" opacity=".7"><path d="M449.07 190.7c-1.02 0-1.8-.28-2.3-.82-.51-.54-.77-1.38-.77-2.51 0-1.19.26-2.04.77-2.57.5-.53 1.28-.8 2.3-.8 1.04 0 1.81.27 2.32.8.5.53.76 1.38.76 2.57 0 1.13-.25 1.97-.76 2.51-.51.54-1.28.81-2.32.81Zm0-.93c.68 0 1.18-.2 1.5-.56.32-.38.48-.99.48-1.84 0-.9-.16-1.53-.48-1.9-.32-.35-.82-.53-1.5-.53-.67 0-1.16.18-1.48.54-.32.36-.48.99-.48 1.89 0 .85.16 1.46.48 1.84.32.37.81.56 1.48.56ZM455.57 190.7c-.84 0-1.48-.22-1.9-.65-.44-.42-.65-1.04-.65-1.85 0-.84.23-1.46.7-1.87a2.8 2.8 0 0 1 1.9-.62c.34 0 .61.03.84.07.22.05.44.13.65.23v.81a2.82 2.82 0 0 0-1.27-.26c-.55 0-.98.12-1.27.37-.3.24-.45.67-.45 1.27 0 .57.14 1 .4 1.26s.7.4 1.3.4c.48 0 .9-.1 1.3-.28v.84a3.87 3.87 0 0 1-1.55.27ZM459.82 190.7c-.51 0-.9-.14-1.14-.42a1.58 1.58 0 0 1-.38-1.1v-2.5h-.7v-.87h.7v-1.1l1.09-.33v1.43h1.27l-.07.86h-1.2v2.44c0 .28.06.47.19.58.13.11.33.17.62.17.18 0 .38-.04.58-.1v.77c-.26.1-.58.16-.96.16Z"></path></g><g fill="#000" fill-rule="nonzero" opacity=".7"><path d="M28.48 145.7v-5.51l-1.05.18v-.92l2.14-.33v6.59zM30.85 145.7v-6.48h1.13l2.05 4.2 2.05-4.2h1.13v6.49h-1.09V141l-1.75 3.59h-.67l-1.76-3.6v4.72z"></path></g><g fill="#000" fill-rule="nonzero" opacity=".7"><path d="M26.71 117v-.54c.17-.4.42-.77.73-1.1.31-.33.65-.65 1-.96l.67-.6c.18-.17.32-.32.42-.45.1-.13.17-.27.21-.42.04-.14.06-.31.06-.5 0-.36-.1-.62-.3-.8-.2-.19-.54-.28-1-.28a3.93 3.93 0 0 0-1.55.3v-.96a5.95 5.95 0 0 1 1.75-.27c.73 0 1.28.17 1.65.53.37.36.55.84.55 1.46 0 .31-.05.59-.16.82-.1.24-.25.47-.44.68a8 8 0 0 1-.66.65l-.87.78c-.27.25-.5.53-.66.82h2.86v.85h-4.26ZM32.04 117v-6.48h1.13l2.06 4.2 2.04-4.2h1.13V117h-1.09v-4.71l-1.75 3.59h-.67l-1.76-3.6v4.72z"></path></g><g fill="#000" fill-rule="nonzero" opacity=".7"><path d="M30 88.4a6.53 6.53 0 0 1-1.85-.28v-.96a4.2 4.2 0 0 0 1.7.31c.52 0 .9-.08 1.16-.23.26-.16.38-.43.38-.82 0-.35-.11-.6-.34-.75a1.79 1.79 0 0 0-1-.24h-.97l.09-.81h.81c.86 0 1.28-.34 1.28-1.01 0-.33-.11-.57-.33-.73-.23-.15-.6-.23-1.09-.23a4.38 4.38 0 0 0-1.57.3v-.93a5.19 5.19 0 0 1 1.74-.3c.8 0 1.39.16 1.77.5.39.34.58.77.58 1.29 0 .32-.08.62-.24.9-.15.29-.4.5-.74.61.4.1.68.28.86.55.17.26.26.57.26.92 0 .66-.23 1.14-.68 1.45-.46.31-1.07.47-1.83.47ZM33.58 88.3v-6.48h1.13l2.06 4.2 2.04-4.2h1.13v6.49h-1.1V83.6l-1.74 3.59h-.66l-1.77-3.6v4.72z"></path></g><g transform="translate(386 23)"><rect fill="#F7F7FA" width="75.49" height="21.53" rx="10.76"></rect><g fill="#000" fill-rule="nonzero" opacity=".7"><path d="M9.95 14.4V7.9h1.13l2.06 4.22 2.04-4.21h1.13v6.49h-1.09V9.7l-1.75 3.59h-.67l-1.76-3.6v4.7zM19.87 14.5c-.86 0-1.49-.21-1.89-.64-.4-.43-.6-1.05-.6-1.85s.2-1.41.6-1.84c.41-.43 1.04-.65 1.9-.65.85 0 1.48.22 1.89.65.4.43.6 1.04.6 1.84s-.2 1.42-.6 1.85c-.4.43-1.03.64-1.9.64Zm0-.92c.5 0 .86-.13 1.08-.37.2-.25.31-.65.31-1.2 0-.55-.1-.94-.31-1.19-.22-.24-.57-.36-1.08-.36-.5 0-.85.12-1.06.36-.21.25-.32.64-.32 1.2 0 .54.1.94.32 1.19.21.24.56.37 1.06.37ZM23.44 14.4V9.62h1l.06.5c.21-.16.47-.3.77-.42.3-.12.63-.18 1-.18.61 0 1.06.15 1.34.44.29.29.43.74.43 1.35v3.1h-1.1v-3.05c0-.37-.07-.63-.22-.78-.15-.15-.43-.22-.85-.22-.25 0-.5.05-.73.15-.24.1-.44.23-.6.4v3.5h-1.1ZM31.1 14.5c-.52 0-.9-.13-1.15-.4a1.58 1.58 0 0 1-.38-1.12v-2.5h-.7v-.86h.7v-1.1l1.09-.33v1.43h1.27l-.07.86h-1.2v2.44c0 .28.06.47.19.58.13.11.34.17.62.17.19 0 .38-.04.58-.1v.77c-.26.1-.58.16-.96.16ZM32.89 14.4V7.6h1.1v2.49c.2-.17.45-.3.74-.41.29-.1.61-.16.98-.16.6 0 1.05.15 1.34.44.29.29.43.74.43 1.35v3.1H36.4v-3.05c0-.37-.08-.63-.23-.78-.16-.15-.44-.22-.83-.22-.24 0-.48.05-.73.16-.25.1-.45.24-.62.4v3.48h-1.1ZM39.9 14.5c-.39 0-.68-.1-.89-.28-.2-.2-.3-.51-.3-.96V7.61h1.1v5.55c0 .19.03.32.1.38.07.07.17.1.3.1.16 0 .32-.01.47-.05v.8a1.8 1.8 0 0 1-.37.09l-.4.02ZM41.96 16.18a2.7 2.7 0 0 1-.93-.15v-.81a1.63 1.63 0 0 0 .61.1c.21 0 .38-.03.5-.1a.94.94 0 0 0 .35-.32c.1-.14.2-.33.31-.56l-2.12-4.72h1.14l1.53 3.55 1.55-3.55h1.13l-1.95 4.51c-.16.4-.34.76-.54 1.06-.19.3-.4.55-.66.72-.25.18-.56.27-.92.27Z"></path></g><path d="m57.87 11.12 3.96 3m3.95-3-3.95 3" stroke="#000" stroke-width=".72" stroke-linecap="round"></path></g><path d="M442.4 85.83a2 2 0 0 1 2.2 3.34l-88.36 57.86a27 27 0 0 1-23.37 3.01l-61.98-20.78a37 37 0 0 0-24.59.38l-89.26 33a27 27 0 0 1-7.45 1.6l-63.51 4.51a98 98 0 0 0-6.71.71l-28.6 4.02a2 2 0 1 1-.55-3.96l28.59-4.02a102 102 0 0 1 6.99-.74l63.5-4.5a23 23 0 0 0 6.35-1.37l89.27-33a41 41 0 0 1 27.25-.42l61.97 20.78a23 23 0 0 0 19.9-2.57l88.36-57.85Z" fill="#000" fill-rule="nonzero"></path><g transform="translate(146.42 154.91)"><circle fill="#FFBE11" cx="6.11" cy="6.11" r="3.95"></circle><path d="M6.11 0a6.11 6.11 0 1 0 0 12.22A6.11 6.11 0 0 0 6.1 0Zm0 2.16a3.95 3.95 0 1 1 .01 7.9 3.95 3.95 0 0 1 0-7.9Z" fill="#FFF" fill-rule="nonzero"></path></g><circle fill="#FFBE11" cx="49.65" cy="171.85" r="3.95"></circle><path d="M49.65 165.74a6.11 6.11 0 1 0 0 12.22 6.11 6.11 0 0 0 0-12.22Zm0 2.16a3.95 3.95 0 1 1 0 7.9 3.95 3.95 0 0 1 0-7.9Z" fill="#FFF" fill-rule="nonzero"></path><g transform="translate(336.68 143.5)"><circle fill="#FFBE11" cx="6.11" cy="6.11" r="3.95"></circle><path d="M6.11 0a6.11 6.11 0 1 0 0 12.22A6.11 6.11 0 0 0 6.1 0Zm0 2.16a3.95 3.95 0 1 1 .01 7.9 3.95 3.95 0 0 1 0-7.9Z" fill="#FFF" fill-rule="nonzero"></path></g><g transform="translate(250.58 118.02)"><circle fill="#FFBE11" cx="6.11" cy="6.11" r="3.95"></circle><path d="M6.11 0a6.11 6.11 0 1 0 0 12.22A6.11 6.11 0 0 0 6.1 0Zm0 2.16a3.95 3.95 0 1 1 .01 7.9 3.95 3.95 0 0 1 0-7.9Z" fill="#FFF" fill-rule="nonzero"></path></g><g transform="translate(437.52 81.27)"><circle fill="#FFBE11" cx="6.11" cy="6.11" r="3.95"></circle><path d="M6.11 0a6.11 6.11 0 1 0 0 12.22A6.11 6.11 0 0 0 6.1 0Zm0 2.16a3.95 3.95 0 1 1 .01 7.9 3.95 3.95 0 0 1 0-7.9Z" fill="#FFF" fill-rule="nonzero"></path></g></g></svg> 